<?xml version="1.0" encoding="UTF-8" standalone="no"?>
<!-- Created with Inkscape (http://www.inkscape.org/) -->

<svg
   width="100"
   height="96"
   viewBox="0 0 26.458332 25.399999"
   version="1.1"
   id="svg6333"
   inkscape:version="1.2.1 (9c6d41e, 2022-07-14)"
   sodipodi:docname="logo-site-mono.svg"
   xml:space="preserve"
   inkscape:export-filename="profile-github.png"
   inkscape:export-xdpi="96"
   inkscape:export-ydpi="96"
   xmlns:inkscape="http://www.inkscape.org/namespaces/inkscape"
   xmlns:sodipodi="http://sodipodi.sourceforge.net/DTD/sodipodi-0.dtd"
   xmlns="http://www.w3.org/2000/svg"
   xmlns:svg="http://www.w3.org/2000/svg"><sodipodi:namedview
     id="namedview6335"
     pagecolor="#ffffff"
     bordercolor="#000000"
     borderopacity="0.25"
     inkscape:showpageshadow="2"
     inkscape:pageopacity="0.0"
     inkscape:pagecheckerboard="0"
     inkscape:deskcolor="#d1d1d1"
     inkscape:document-units="mm"
     showgrid="false"
     inkscape:zoom="2.4886396"
     inkscape:cx="14.666647"
     inkscape:cy="80.365191"
     inkscape:window-width="1440"
     inkscape:window-height="772"
     inkscape:window-x="253"
     inkscape:window-y="1105"
     inkscape:window-maximized="0"
     inkscape:current-layer="layer1" /><defs
     id="defs6330" /><g
     inkscape:label="Layer 1"
     inkscape:groupmode="layer"
     id="layer1"><path
       id="path8709-7-8"
       style="fill:#000080;fill-opacity:1;fill-rule:evenodd;stroke:none;stroke-width:0.167194;stroke-linejoin:bevel"
       d="m 16.897321,3.1744412 a 9.8295302,9.5793084 0 0 0 -9.829531,9.5792178 9.8295302,9.5793084 0 0 0 9.829531,9.579218 9.8295302,9.5793084 0 0 0 5.620928,-1.72739 v 1.566988 h 3.896342 v -7.03489 a 9.8295302,9.5793084 0 0 0 0.01907,-0.06429 h -0.01907 v -0.05606 h -3.896342 v 0.10282 a 5.7966603,5.5097789 0 0 1 -5.325124,3.340486 5.7966603,5.5097789 0 0 1 -5.796764,-5.509679 5.7966603,5.5097789 0 0 1 5.796764,-5.5098954 5.7966603,5.5097789 0 0 1 5.208188,3.0917674 h 4.05702 A 9.8295302,9.5793084 0 0 0 16.897321,3.1744412 Z" /><path
       id="path8709-7"
       style="fill:#000080;fill-opacity:1;fill-rule:evenodd;stroke:#ffffff;stroke-width:1.5875;stroke-linecap:square;stroke-linejoin:round;stroke-dasharray:none;stroke-opacity:1;paint-order:stroke fill markers"
       d="m 12.905915,3.1744412 a 9.8295302,9.5793084 0 0 0 -9.8295309,9.5792178 9.8295302,9.5793084 0 0 0 9.8295309,9.579218 9.8295302,9.5793084 0 0 0 9.536326,-7.259582 H 18.55023 a 5.7966603,5.5097789 0 0 1 -5.348511,3.387242 5.7966603,5.5097789 0 0 1 -5.796764,-5.509679 5.7966603,5.5097789 0 0 1 5.796764,-5.5098954 5.7966603,5.5097789 0 0 1 5.208188,3.0917674 h 4.057021 A 9.8295302,9.5793084 0 0 0 12.905915,3.1744412 Z" /><rect
       style="fill:#ffffff;fill-opacity:1;fill-rule:evenodd;stroke:none;stroke-width:0.309859;stroke-linejoin:bevel;stroke-dasharray:none;stroke-opacity:1"
       id="rect8967"
       width="0.66145831"
       height="1.6360466"
       x="12.551459"
       y="3.16219" /><rect
       style="fill:#000080;fill-opacity:1;fill-rule:evenodd;stroke:none;stroke-width:0.431649;stroke-linejoin:bevel;stroke-dasharray:none;stroke-opacity:1"
       id="rect8967-6"
       width="0.66145831"
       height="3.1749029"
       x="12.551459"
       y="-3.16219"
       transform="scale(1,-1)" /><rect
       style="fill:#ffffff;fill-opacity:1;fill-rule:evenodd;stroke:none;stroke-width:0.309859;stroke-linejoin:bevel;stroke-dasharray:none;stroke-opacity:1"
       id="rect8967-8"
       width="0.66145831"
       height="1.6360466"
       x="12.551459"
       y="-22.23781"
       transform="scale(1,-1)" /><rect
       style="fill:#000080;fill-opacity:1;fill-rule:evenodd;stroke:none;stroke-width:0.431649;stroke-linejoin:bevel;stroke-dasharray:none;stroke-opacity:1"
       id="rect8967-6-5"
       width="0.66145831"
       height="3.1749029"
       x="12.551459"
       y="22.23781" /><rect
       style="fill:#ffffff;fill-opacity:1;fill-rule:evenodd;stroke:none;stroke-width:0.309918;stroke-linejoin:bevel;stroke-dasharray:none;stroke-opacity:1"
       id="rect8967-3"
       width="0.66145831"
       height="1.6366729"
       x="-13.196199"
       y="3.1761179"
       transform="rotate(-90)" /><rect
       style="fill:#000080;fill-opacity:1;fill-rule:evenodd;stroke:none;stroke-width:0.431732;stroke-linejoin:bevel;stroke-dasharray:none;stroke-opacity:1"
       id="rect8967-6-0"
       width="0.66145831"
       height="3.1761179"
       x="-13.196199"
       y="-3.1761179"
       transform="matrix(0,-1,-1,0,0,0)" /><path
       id="rect8967-6-0-2"
       style="fill:#000080;fill-rule:evenodd;stroke-width:0.431732;stroke-linejoin:bevel"
       d="m 22.037171,13.196199 v -0.661458 h 3.176118 v 0.661458 z m 0,0 v -0.661458 h -1.636673 v 0.661458 z" /></g></svg>
