<?xml version="1.0" encoding="UTF-8" standalone="no"?>
<!-- Created with Inkscape (http://www.inkscape.org/) -->

<svg
   width="100"
   height="96"
   viewBox="0 0 26.458332 25.399999"
   version="1.1"
   id="svg6333"
   inkscape:version="1.2.1 (9c6d41e, 2022-07-14)"
   sodipodi:docname="logo-site.svg"
   xml:space="preserve"
   inkscape:export-filename="profile-github.png"
   inkscape:export-xdpi="96"
   inkscape:export-ydpi="96"
   xmlns:inkscape="http://www.inkscape.org/namespaces/inkscape"
   xmlns:sodipodi="http://sodipodi.sourceforge.net/DTD/sodipodi-0.dtd"
   xmlns="http://www.w3.org/2000/svg"
   xmlns:svg="http://www.w3.org/2000/svg"><sodipodi:namedview
     id="namedview6335"
     pagecolor="#ffffff"
     bordercolor="#000000"
     borderopacity="0.25"
     inkscape:showpageshadow="2"
     inkscape:pageopacity="0.0"
     inkscape:pagecheckerboard="0"
     inkscape:deskcolor="#d1d1d1"
     inkscape:document-units="mm"
     showgrid="false"
     inkscape:zoom="0.92065776"
     inkscape:cx="58.110627"
     inkscape:cy="108.618"
     inkscape:window-width="1440"
     inkscape:window-height="772"
     inkscape:window-x="0"
     inkscape:window-y="25"
     inkscape:window-maximized="0"
     inkscape:current-layer="layer1" /><defs
     id="defs6330" /><g
     inkscape:label="Layer 1"
     inkscape:groupmode="layer"
     id="layer1"><g
       id="g430"
       transform="matrix(0.29980777,0,0,0.29969307,-6.6018682,-7.1234475)"><path
         id="path8709-7-8"
         style="fill:#aa0000;fill-opacity:1;fill-rule:evenodd;stroke:none;stroke-width:0.557778;stroke-linejoin:bevel"
         d="M 78.380855,34.361451 A 32.786109,31.96373 0 0 0 45.594743,66.324877 32.786109,31.96373 0 0 0 78.380855,98.288306 32.786109,31.96373 0 0 0 97.129293,92.524442 v 5.228645 H 110.12543 V 74.279438 a 32.786109,31.96373 0 0 0 0.0636,-0.21452 h -0.0636 V 73.877846 H 97.129293 v 0.343086 A 19.33459,18.384739 0 0 1 79.367501,85.367286 19.33459,18.384739 0 0 1 60.032565,66.982881 19.33459,18.384739 0 0 1 79.367501,48.597754 19.33459,18.384739 0 0 1 96.739258,58.914199 H 110.27133 A 32.786109,31.96373 0 0 0 78.380855,34.361451 Z" /><path
         id="path8709-7"
         style="fill:#000080;fill-opacity:1;fill-rule:evenodd;stroke:#ffffff;stroke-width:3.69812;stroke-linecap:square;stroke-linejoin:round;stroke-dasharray:none;stroke-opacity:1;paint-order:stroke fill markers"
         d="M 65.067638,34.361451 A 32.786109,31.96373 0 0 0 32.281526,66.324877 32.786109,31.96373 0 0 0 65.067638,98.288306 32.786109,31.96373 0 0 0 96.875773,74.064918 H 83.894083 A 19.33459,18.384739 0 0 1 66.054284,85.367286 19.33459,18.384739 0 0 1 46.719347,66.982881 19.33459,18.384739 0 0 1 66.054284,48.597754 19.33459,18.384739 0 0 1 83.426041,58.914199 H 96.958114 A 32.786109,31.96373 0 0 0 65.067638,34.361451 Z" /><rect
         style="fill:#ffffff;fill-opacity:1;fill-rule:evenodd;stroke:none;stroke-width:0.841184;stroke-linejoin:bevel;stroke-dasharray:none;stroke-opacity:1"
         id="rect8967"
         width="1.4609399"
         height="5.459074"
         x="63.885361"
         y="34.320572" /><rect
         style="fill:#000080;fill-opacity:1;fill-rule:evenodd;stroke:none;stroke-width:1.17181;stroke-linejoin:bevel;stroke-dasharray:none;stroke-opacity:1"
         id="rect8967-6"
         width="1.4609399"
         height="10.593848"
         x="63.885361"
         y="-34.320572"
         transform="scale(1,-1)" /><rect
         style="fill:#ffffff;fill-opacity:1;fill-rule:evenodd;stroke:none;stroke-width:0.841184;stroke-linejoin:bevel;stroke-dasharray:none;stroke-opacity:1"
         id="rect8967-8"
         width="1.4609399"
         height="5.459074"
         x="63.885361"
         y="-97.971092"
         transform="scale(1,-1)" /><rect
         style="fill:#000080;fill-opacity:1;fill-rule:evenodd;stroke:none;stroke-width:1.17181;stroke-linejoin:bevel;stroke-dasharray:none;stroke-opacity:1"
         id="rect8967-6-5"
         width="1.4609399"
         height="10.593848"
         x="63.885361"
         y="97.971092" /><rect
         style="fill:#ffffff;fill-opacity:1;fill-rule:evenodd;stroke:none;stroke-width:0.841184;stroke-linejoin:bevel;stroke-dasharray:none;stroke-opacity:1"
         id="rect8967-3"
         width="1.4609399"
         height="5.459074"
         x="-67.055344"
         y="32.614185"
         transform="rotate(-90)" /><rect
         style="fill:#000080;fill-opacity:1;fill-rule:evenodd;stroke:none;stroke-width:1.17181;stroke-linejoin:bevel;stroke-dasharray:none;stroke-opacity:1"
         id="rect8967-6-0"
         width="1.4609399"
         height="10.593848"
         x="-67.055344"
         y="-32.614185"
         transform="matrix(0,-1,-1,0,0,0)" /><path
         id="rect8967-6-0-2"
         style="fill:#000080;fill-rule:evenodd;stroke-width:1.17181;stroke-linejoin:bevel"
         d="m 95.524672,67.055346 v -1.46094 h 10.593848 v 1.460941 z m 0,0 v -1.46094 h -5.459075 v 1.460941 z" /></g></g></svg>
